<?xml version="1.0" standalone="no"?>
<!DOCTYPE svg PUBLIC "-//W3C//DTD SVG 20010904//EN"
 "http://www.w3.org/TR/2001/REC-SVG-20010904/DTD/svg10.dtd">
<svg version="1.0" xmlns="http://www.w3.org/2000/svg"
 width="47.000000pt" height="47.000000pt" viewBox="0 0 47.000000 47.000000"
 preserveAspectRatio="xMidYMid meet">

<g transform="translate(0.000000,47.000000) scale(0.100000,-0.100000)"
fill="#000000" stroke="none">
<path d="M195 320 c-16 -5 -21 -19 -25 -61 l-5 -54 -35 58 c-33 54 -50 70 -50
47 0 -15 91 -150 101 -150 5 0 9 32 9 70 l0 70 30 2 c94 4 85 11 88 -69 4 -99
22 -93 22 7 l0 80 -42 1 c-24 0 -50 2 -58 3 -8 2 -24 0 -35 -4z"/>
<path d="M370 240 c0 -47 4 -80 10 -80 6 0 10 33 10 80 0 47 -4 80 -10 80 -6
0 -10 -33 -10 -80z"/>
<path d="M226 255 c-9 -24 1 -35 30 -35 21 0 25 4 22 23 -4 27 -42 36 -52 12z"/>
</g>
</svg>
